<?xml version="1.0" encoding="UTF-8" standalone="no" ?>
<!DOCTYPE svg PUBLIC "-//W3C//DTD SVG 1.1//EN" "http://www.w3.org/Graphics/SVG/1.1/DTD/svg11.dtd">
<svg xmlns="http://www.w3.org/2000/svg" xmlns:xlink="http://www.w3.org/1999/xlink" version="1.1" width="1280" height="807.1105385647211" viewBox="0 0 1280 807.1105385647211" xml:space="preserve">
<desc>Created with Fabric.js 5.3.0</desc>
<defs>
</defs>
<g transform="matrix(1 0 0 1 640 403.55526928236054)" id="background-logo"  >
<rect style="stroke: none; stroke-width: 0; stroke-dasharray: none; stroke-linecap: butt; stroke-dashoffset: 0; stroke-linejoin: miter; stroke-miterlimit: 4; fill: rgb(255,255,255); fill-opacity: 0; fill-rule: nonzero; opacity: 1;"  paint-order="stroke"  x="-747.529200359389" y="-598.0233602875113" rx="0" ry="0" width="1495.058400718778" height="1196.0467205750226" />
</g>
<g transform="matrix(2.3000898472596587 0 0 2.3000898472596587 682.7718957771788 272.95510971362717)" id="logo-logo"  >
<g style=""  paint-order="stroke"   >
		<g transform="matrix(0.4589226922255218 0 0 0.4589226922255218 -60.86127216543662 70.021053787265)"  >
<g style=""  paint-order="stroke"   >
		<g transform="matrix(1 0 0 1 0 0)"  >
<linearGradient id="SVGID_329584_129620" gradientUnits="userSpaceOnUse" gradientTransform="matrix(1 0 0 1 0 -0.0000011895749452151)"  x1="9.494944710172234" y1="0" x2="240.50505532009169" y2="212.02022118957495">
<stop offset="0%" style="stop-color:rgb(167,242,255);stop-opacity: 1"/>
<stop offset="49%" style="stop-color:rgb(114,157,221);stop-opacity: 1"/>
<stop offset="49%" style="stop-color:rgb(87,118,180);stop-opacity: 1"/>
<stop offset="100%" style="stop-color:rgb(57,72,155);stop-opacity: 1"/>
</linearGradient>
<path style="stroke: none; stroke-width: 1; stroke-dasharray: none; stroke-linecap: butt; stroke-dashoffset: 0; stroke-linejoin: miter; stroke-miterlimit: 4; fill: url(#SVGID_329584_129620); fill-rule: nonzero; opacity: 1;"  paint-order="stroke"  transform=" translate(-125.00000001513196, -106.01010940521253)" d="M 250 108.91597 C 250.00078 125.3064 234.92406 139.01375000000002 218.60797 137.45326 C 213.53101999999998 136.96786 208.86238 135.14035 204.92749 132.33777 C 201.51611 129.9077 196.79065 132.63983000000002 196.97789 136.82346 C 198.91711 180.18718 204.42340000000002 212.02022 204.42340000000002 212.02022 L 0 212.02022 L 0 7.59681 C 0.71193 7.380389999999999 1.43204 7.19978 2.14514 6.988029999999999 C 7.17188 6.117279999999999 32.40446 1.9628499999999995 66.72479 0.005319999999999325 C 69.01823999999999 -0.12547000000000066 70.70096 2.178489999999999 69.81891999999999 4.299499999999999 C 68.49976 7.47148 67.65431999999998 10.83068 67.32579 14.2619 C 66.4134 23.821820000000002 69.7547 33.55612 76.49334999999999 40.97362 C 90.01424999999999 55.84365 114.15265 58.00242 129.46642 38.595319999999994 C 134.19422 32.60363999999999 137.25371 25.224279999999993 137.25332 17.591919999999995 C 137.25332 12.982059999999993 136.35455 8.493259999999994 134.62122 4.320139999999995 C 133.73647 2.190179999999995 135.40439 -0.1254600000000048 137.70678999999998 0.00571999999999484 C 172.03490999999997 1.962859999999995 197.25074999999998 6.116129999999995 202.27747999999997 6.987649999999995 C 202.96917999999997 7.192779999999995 203.66631999999996 7.370669999999995 204.35761999999997 7.578139999999995 L 204.35801999999998 7.577359999999995 L 204.35801999999998 7.578139999999995 C 204.37981 7.584759999999995 204.40160999999998 7.590209999999995 204.4234 7.596819999999995 L 204.14081 8.836569999999995 C 203.11864999999997 14.884309999999996 198.68822999999998 42.76181999999999 196.97789 81.01666999999999 C 196.78987 85.21509999999999 201.52547 87.91608 204.95123 85.48133999999999 C 209.57666 82.19336999999999 215.21373 80.25258 221.33503000000002 80.25258 C 237.16534 80.25257 249.99883 93.08528 250 108.91597 z" stroke-linecap="round" />
</g>
</g>
</g>
		<g transform="matrix(-0.39285427462894945 0 0 0.39285427462894945 24.5004048489983 69.56213109503958)"  >
<g style=""  paint-order="stroke"   >
		<g transform="matrix(1 0 0 1 0 0)"  >
<linearGradient id="SVGID_329585_129621" gradientUnits="userSpaceOnUse" gradientTransform="matrix(1 0 0 1 0 0.00000550331363058376)"  x1="249.99999372271893" y1="1.9349181457073428e-7" x2="0" y2="249.99999430319457">
<stop offset="0%" style="stop-color:rgb(244,255,96);stop-opacity: 1"/>
<stop offset="49%" style="stop-color:rgb(171,219,90);stop-opacity: 1"/>
<stop offset="49.5%" style="stop-color:rgb(93,176,87);stop-opacity: 1"/>
<stop offset="100%" style="stop-color:rgb(67,147,79);stop-opacity: 1"/>
</linearGradient>
<path style="stroke: none; stroke-width: 1; stroke-dasharray: none; stroke-linecap: butt; stroke-dashoffset: 0; stroke-linejoin: miter; stroke-miterlimit: 4; fill: url(#SVGID_329585_129621); fill-rule: nonzero; opacity: 1;"  paint-order="stroke"  transform=" translate(-124.99999686135946, -125.00000275165682)" d="M 249.99327 171.33224 C 247.68555 211.80966 242.78828 241.54248 241.76063 247.46968 C 241.51094999999998 248.31097 241.29753 249.16008000000002 241.04234 250 L 0 250 L 0 8.95765 C 0.83946 8.70246 1.68857 8.4895 2.52941 8.23982 C 8.45661 7.21309 38.20916 2.3144599999999995 78.67739 0.006280000000000285 C 81.38167 -0.1479399999999997 83.36582 2.5687300000000004 82.32578000000001 5.0696900000000005 C 80.77031000000001 8.80987 79.77342000000002 12.77082 79.38604000000001 16.81668 C 78.31020000000001 28.089090000000002 82.25005 39.56712 90.19581000000001 48.31334 C 106.13874000000001 65.84708 134.60113 68.39256 152.65809000000002 45.509009999999996 C 158.23280000000003 38.444019999999995 161.84034000000003 29.742779999999996 161.83988000000002 20.743209999999998 C 161.83988000000002 15.307579999999998 160.78011000000004 10.014679999999998 158.73629000000003 5.094019999999997 C 157.69305000000003 2.582509999999997 159.65975000000003 -0.14793000000000323 162.37458000000004 0.006749999999996703 C 202.85200000000003 2.314469999999997 232.58482000000004 7.211729999999997 238.51202000000004 8.239369999999997 C 239.35331000000002 8.489049999999997 240.20242000000005 8.702479999999998 241.04234000000002 8.957669999999997 C 241.29753000000002 9.797129999999997 241.51049000000003 10.646239999999997 241.76017000000002 11.487079999999997 C 242.7869 17.413819999999998 247.68554 47.16683 249.99372000000002 87.63506999999998 C 250.14793000000003 90.33934999999998 247.43127 92.32348999999998 244.93030000000002 91.28299999999999 C 241.19013 89.72752999999999 237.22917 88.73109999999998 233.18332 88.34373 C 221.9109 87.26789 210.43288 91.20773 201.68666000000002 99.15348999999999 C 184.15291000000002 115.09597 181.60744000000003 143.5588 204.49098 161.61578 C 211.55598 167.19049 220.25722000000002 170.79803 229.25679 170.79757 C 234.69243 170.7971 239.98532 169.73733000000001 244.90598 167.69352 C 247.4175 166.65071 250.14841 168.61696 249.99327 171.33224 z" stroke-linecap="round" />
</g>
</g>
</g>
		<g transform="matrix(0 0.4589226922255218 -0.4589226922255218 0 -70.17414979408761 -15.653496471005695)"  >
<g style=""  paint-order="stroke"   >
		<g transform="matrix(1 0 0 1 0 0)"  >
<linearGradient id="SVGID_329586_129622" gradientUnits="userSpaceOnUse" gradientTransform="matrix(1 0 0 1 0 -0.0000011895749452151)"  x1="240.50505532009169" y1="0" x2="9.494944710172234" y2="212.02022118957495">
<stop offset="0%" style="stop-color:rgb(76,59,146);stop-opacity: 1"/>
<stop offset="52.49999999999999%" style="stop-color:rgb(112,83,149);stop-opacity: 1"/>
<stop offset="52.5%" style="stop-color:rgb(145,105,165);stop-opacity: 1"/>
<stop offset="100%" style="stop-color:rgb(241,197,249);stop-opacity: 1"/>
</linearGradient>
<path style="stroke: none; stroke-width: 1; stroke-dasharray: none; stroke-linecap: butt; stroke-dashoffset: 0; stroke-linejoin: miter; stroke-miterlimit: 4; fill: url(#SVGID_329586_129622); fill-rule: nonzero; opacity: 1;"  paint-order="stroke"  transform=" translate(-125.00000001513196, -106.01010940521253)" d="M 250 108.91597 C 250.00078 125.3064 234.92406 139.01375000000002 218.60797 137.45326 C 213.53101999999998 136.96786 208.86238 135.14035 204.92749 132.33777 C 201.51611 129.9077 196.79065 132.63983000000002 196.97789 136.82346 C 198.91711 180.18718 204.42340000000002 212.02022 204.42340000000002 212.02022 L 0 212.02022 L 0 7.59681 C 0.71193 7.380389999999999 1.43204 7.19978 2.14514 6.988029999999999 C 7.17188 6.117279999999999 32.40446 1.9628499999999995 66.72479 0.005319999999999325 C 69.01823999999999 -0.12547000000000066 70.70096 2.178489999999999 69.81891999999999 4.299499999999999 C 68.49976 7.47148 67.65431999999998 10.83068 67.32579 14.2619 C 66.4134 23.821820000000002 69.7547 33.55612 76.49334999999999 40.97362 C 90.01424999999999 55.84365 114.15265 58.00242 129.46642 38.595319999999994 C 134.19422 32.60363999999999 137.25371 25.224279999999993 137.25332 17.591919999999995 C 137.25332 12.982059999999993 136.35455 8.493259999999994 134.62122 4.320139999999995 C 133.73647 2.190179999999995 135.40439 -0.1254600000000048 137.70678999999998 0.00571999999999484 C 172.03490999999997 1.962859999999995 197.25074999999998 6.116129999999995 202.27747999999997 6.987649999999995 C 202.96917999999997 7.192779999999995 203.66631999999996 7.370669999999995 204.35761999999997 7.578139999999995 L 204.35801999999998 7.577359999999995 L 204.35801999999998 7.578139999999995 C 204.37981 7.584759999999995 204.40160999999998 7.590209999999995 204.4234 7.596819999999995 L 204.14081 8.836569999999995 C 203.11864999999997 14.884309999999996 198.68822999999998 42.76181999999999 196.97789 81.01666999999999 C 196.78987 85.21509999999999 201.52547 87.91608 204.95123 85.48133999999999 C 209.57666 82.19336999999999 215.21373 80.25258 221.33503000000002 80.25258 C 237.16534 80.25257 249.99883 93.08528 250 108.91597 z" stroke-linecap="round" />
</g>
</g>
</g>
		<g transform="matrix(-0.41612437476483627 -0.19404198269780382 0.19404198269780382 -0.41612437476483627 42.5547830182237 -42.40281185871686)"  >
<g style=""  paint-order="stroke"   >
		<g transform="matrix(1 0 0 1 0 0)"  >
<linearGradient id="SVGID_329587_129623" gradientUnits="userSpaceOnUse" gradientTransform="matrix(1 0 0 1 0 -3.024007355634e-8)"  x1="0.0025325000000009368" y1="0" x2="249.9974575302401" y2="249.98986003024007">
<stop offset="0%" style="stop-color:rgb(255,228,75);stop-opacity: 1"/>
<stop offset="49%" style="stop-color:rgb(255,171,85);stop-opacity: 1"/>
<stop offset="49%" style="stop-color:rgb(251,140,88);stop-opacity: 1"/>
<stop offset="100%" style="stop-color:rgb(219,56,108);stop-opacity: 1"/>
</linearGradient>
<path style="stroke: none; stroke-width: 1; stroke-dasharray: none; stroke-linecap: butt; stroke-dashoffset: 0; stroke-linejoin: miter; stroke-miterlimit: 4; fill: url(#SVGID_329587_129623); fill-rule: nonzero; opacity: 1;"  paint-order="stroke"  transform=" translate(-124.99999501512005, -124.99492998487996)" d="M 221.31248 119.00983 C 215.18635 119.00983 209.54484 120.95214 204.91539 124.2427 C 201.48732 126.67936 196.748 123.97624 196.93578 119.77452 C 198.87615 76.37433999999999 204.59479 45.40558999999999 204.59479 45.40558999999999 L 204.55739 45.52479999999999 L 204.58428 45.40558999999999 L 204.57999 45.40636999999999 L 204.58428 45.40519999999999 C 204.58428 45.40519999999999 173.61786 51.123069999999984 130.22002 53.06382999999999 C 126.03271000000001 53.251209999999986 123.29882 48.52201999999999 125.73042000000001 45.10796999999999 C 128.53559 41.169969999999985 130.36455 36.49765999999999 130.85032 31.416719999999987 C 132.41203 15.08781 118.6939 -0.00078 102.29057 0 C 86.44743 0.00117 73.60423 12.84476 73.60423 28.68752 C 73.60423 34.81364 75.54693 40.45516 78.8371 45.08423 C 81.27415 48.51269 78.57103000000001 53.251999999999995 74.36931000000001 53.063849999999995 C 30.96913 51.12347 0 45.40521 0 45.40521 L 0.00429 45.40638 L 0 45.4056 L 0 249.98986 L 204.58427 249.98986 L 204.55738 249.87066 L 204.59478 249.98986 C 204.59478 249.98986 198.87652 219.02306 196.93615 175.62522 C 196.74877 171.43830000000003 201.47796 168.70402 204.89201 171.13601 C 208.83001 173.94079 213.50232 175.76975 218.58326 176.25553 C 234.91219 177.81724 250.00077 164.09911 249.99999 147.69577999999998 C 249.99883 131.85265 237.15524 119.00983 221.31248 119.00983 z" stroke-linecap="round" />
</g>
</g>
</g>
</g>
</g>
<g transform="matrix(2.3000898472596587 0 0 2.3000898472596587 640 682.1741202358796)" id="text-logo"  >
<g style=""  paint-order="stroke"   >
		<g transform="matrix(1 0 0 1 0 0)" id="text-logo-path-0"  >
<path style="stroke: none; stroke-width: 0; stroke-dasharray: none; stroke-linecap: butt; stroke-dashoffset: 0; stroke-linejoin: miter; stroke-miterlimit: 4; fill: rgb(255,255,255); fill-rule: nonzero; opacity: 1;"  paint-order="stroke"  transform=" translate(-281.97, 17.15)" d="M 3.72 -34.3 L 3.72 0 L 29.11 0 L 29.11 -7.35 L 11.56 -7.35 L 11.56 -13.47 L 25.68 -13.47 L 25.68 -20.34 L 11.56 -20.34 L 11.56 -26.95 L 29.11 -26.95 L 29.11 -34.3 Z M 38.07 -34.3 L 38.07 0 L 53.17 0 C 63.06 0 70.31 -6.86 70.31 -17.15 C 70.31 -27.05 63.46 -34.3 53.17 -34.3 Z M 45.91 -7.35 L 45.91 -26.95 L 52.19 -26.95 C 57.87 -26.95 61.99 -23.08 61.99 -17.15 C 61.99 -11.47 58.11 -7.35 52.19 -7.35 Z M 110.5 -7.15 L 110.5 -19.11 L 93.15 -19.11 L 93.15 -13.23 L 102.66 -13.23 L 102.66 -10.04 C 100.4 -7.89 97.71 -6.96 94.67 -6.96 C 89.08 -6.96 84.97 -11.32 84.97 -17.1 C 84.97 -22.79 88.79 -27.34 94.67 -27.34 C 98.15 -27.34 101.33 -25.58 103.15 -22.88 L 110.05 -26.95 C 107.06 -31.95 101.68 -35.08 94.67 -35.08 C 84.33 -35.08 76.78 -27.93 76.78 -17.1 C 76.78 -6.76 83.89 0.78 94.67 0.78 C 101.38 0.78 107.06 -2.11 110.5 -7.15 Z M 119.02 -34.3 L 119.02 0 L 144.4 0 L 144.4 -7.35 L 126.86 -7.35 L 126.86 -13.47 L 140.97 -13.47 L 140.97 -20.34 L 126.86 -20.34 L 126.86 -26.95 L 144.4 -26.95 L 144.4 -34.3 Z M 151.51 -34.3 L 162.78 0 L 171.6 0 L 178.7 -20.63 L 185.76 0 L 194.58 0 L 205.85 -34.3 L 197.27 -34.3 L 189.97 -12.15 L 182.08 -34.3 L 175.27 -34.3 L 167.38 -12.15 L 160.08 -34.3 Z M 226.04 0.78 C 236.38 0.78 243.92 -6.32 243.92 -17.1 C 243.92 -27.54 236.87 -35.08 226.04 -35.08 C 215.7 -35.08 208.15 -27.93 208.15 -17.1 C 208.15 -6.76 215.26 0.78 226.04 0.78 Z M 226.04 -6.96 C 220.45 -6.96 216.34 -11.32 216.34 -17.1 C 216.34 -22.79 220.16 -27.34 226.04 -27.34 C 231.62 -27.34 235.74 -22.93 235.74 -17.1 C 235.74 -11.52 231.87 -6.96 226.04 -6.96 Z M 267.39 0.78 C 277.73 0.78 285.28 -6.32 285.28 -17.1 C 285.28 -27.54 278.22 -35.08 267.39 -35.08 C 257.05 -35.08 249.51 -27.93 249.51 -17.1 C 249.51 -6.76 256.61 0.78 267.39 0.78 Z M 267.39 -6.96 C 261.81 -6.96 257.69 -11.32 257.69 -17.1 C 257.69 -22.79 261.51 -27.34 267.39 -27.34 C 272.98 -27.34 277.1 -22.93 277.1 -17.1 C 277.1 -11.52 273.22 -6.96 267.39 -6.96 Z M 293.02 -34.3 L 293.02 0 L 308.11 0 C 318.01 0 325.26 -6.86 325.26 -17.15 C 325.26 -27.05 318.4 -34.3 308.11 -34.3 Z M 300.86 -7.35 L 300.86 -26.95 L 307.13 -26.95 C 312.82 -26.95 316.93 -23.08 316.93 -17.15 C 316.93 -11.47 313.06 -7.35 307.13 -7.35 Z M 346.33 0 L 354.17 0 L 354.17 -7.5 L 360.84 -7.5 C 368.38 -7.5 374.16 -13.03 374.16 -20.97 C 374.16 -28.52 368.68 -34.3 360.84 -34.3 L 346.33 -34.3 Z M 354.17 -14.85 L 354.17 -26.95 L 359.76 -26.95 C 363.24 -26.95 365.83 -24.5 365.83 -20.92 C 365.83 -17.39 363.43 -14.85 359.76 -14.85 Z M 413.46 -15.44 L 413.46 -34.3 L 405.62 -34.3 L 405.62 -15.44 C 405.62 -10.58 402.34 -7.06 397.34 -7.06 C 392.49 -7.06 388.96 -10.39 388.96 -15.44 L 388.96 -34.3 L 381.12 -34.3 L 381.12 -15.44 C 381.12 -6.03 387.59 0.78 397.39 0.78 C 406.65 0.78 413.46 -5.68 413.46 -15.44 Z M 440.8 -26.95 L 420.27 -7.35 L 420.27 0 L 452.07 0 L 452.07 -7.35 L 431.05 -7.35 L 451.09 -26.95 L 451.09 -34.3 L 421.74 -34.3 L 421.74 -26.95 Z M 480.1 -26.95 L 459.57 -7.35 L 459.57 0 L 491.37 0 L 491.37 -7.35 L 470.35 -7.35 L 490.39 -26.95 L 490.39 -34.3 L 461.04 -34.3 L 461.04 -26.95 Z M 501.27 -34.3 L 501.27 0 L 526.65 0 L 526.65 -7.35 L 509.11 -7.35 L 509.11 -34.3 Z M 534.84 -34.3 L 534.84 0 L 560.22 0 L 560.22 -7.35 L 542.67 -7.35 L 542.67 -13.47 L 556.79 -13.47 L 556.79 -20.34 L 542.67 -20.34 L 542.67 -26.95 L 560.22 -26.95 L 560.22 -34.3 Z" stroke-linecap="round" />
</g>
</g>
</g>
<g transform="matrix(1 0 0 1 325 431.9399188715888)" id="tagline-3b6bad30-d430-4684-98cc-4fb8d1a9e7d4-logo"  >
<g style=""  paint-order="stroke"   >
		<g transform="matrix(1 0 0 1 0 0)" id="tagline-3b6bad30-d430-4684-98cc-4fb8d1a9e7d4-logo-path-0"  >
<path style="stroke: none; stroke-width: 0; stroke-dasharray: none; stroke-linecap: butt; stroke-dashoffset: 0; stroke-linejoin: miter; stroke-miterlimit: 4; fill: rgb(121,143,182); fill-rule: nonzero; opacity: 1;"  paint-order="stroke"  transform=" translate(0, 0)" d="" stroke-linecap="round" />
</g>
</g>
</g>
</svg>